<svg width="128" height="212" viewBox="0 0 128 212" fill="none" xmlns="http://www.w3.org/2000/svg">
<g opacity="0.6">
<circle cx="125.567" cy="1.73196" r="1.73196" transform="rotate(90 125.567 1.73196)" fill="#2945FF"/>
<circle cx="125.567" cy="112.578" r="1.73196" transform="rotate(90 125.567 112.578)" fill="#2945FF"/>
<circle cx="70.1441" cy="1.73196" r="1.73196" transform="rotate(90 70.1441 1.73196)" fill="#2945FF"/>
<circle cx="70.1441" cy="112.578" r="1.73196" transform="rotate(90 70.1441 112.578)" fill="#2945FF"/>
<circle cx="97.8555" cy="1.73196" r="1.73196" transform="rotate(90 97.8555 1.73196)" fill="#2945FF"/>
<circle cx="97.8555" cy="112.578" r="1.73196" transform="rotate(90 97.8555 112.578)" fill="#2945FF"/>
<circle cx="42.4337" cy="1.73196" r="1.73196" transform="rotate(90 42.4337 1.73196)" fill="#2945FF"/>
<circle cx="42.4337" cy="112.578" r="1.73196" transform="rotate(90 42.4337 112.578)" fill="#2945FF"/>
<circle cx="111.712" cy="1.73196" r="1.73196" transform="rotate(90 111.712 1.73196)" fill="#2945FF"/>
<circle cx="111.712" cy="112.578" r="1.73196" transform="rotate(90 111.712 112.578)" fill="#2945FF"/>
<circle cx="56.2889" cy="1.73196" r="1.73196" transform="rotate(90 56.2889 1.73196)" fill="#2945FF"/>
<circle cx="56.2889" cy="112.578" r="1.73196" transform="rotate(90 56.2889 112.578)" fill="#2945FF"/>
<circle cx="84.0003" cy="1.73196" r="1.73196" transform="rotate(90 84.0003 1.73196)" fill="#2945FF"/>
<circle cx="84.0003" cy="112.578" r="1.73196" transform="rotate(90 84.0003 112.578)" fill="#2945FF"/>
<circle cx="28.5775" cy="1.73196" r="1.73196" transform="rotate(90 28.5775 1.73196)" fill="#2945FF"/>
<circle cx="28.5775" cy="112.578" r="1.73196" transform="rotate(90 28.5775 112.578)" fill="#2945FF"/>
<circle cx="125.567" cy="15.5874" r="1.73196" transform="rotate(90 125.567 15.5874)" fill="#2945FF"/>
<circle cx="125.567" cy="126.433" r="1.73196" transform="rotate(90 125.567 126.433)" fill="#2945FF"/>
<circle cx="70.1441" cy="15.5874" r="1.73196" transform="rotate(90 70.1441 15.5874)" fill="#2945FF"/>
<circle cx="70.1441" cy="126.433" r="1.73196" transform="rotate(90 70.1441 126.433)" fill="#2945FF"/>
<circle cx="97.8555" cy="15.5874" r="1.73196" transform="rotate(90 97.8555 15.5874)" fill="#2945FF"/>
<circle cx="97.8555" cy="126.433" r="1.73196" transform="rotate(90 97.8555 126.433)" fill="#2945FF"/>
<circle cx="42.4337" cy="15.5874" r="1.73196" transform="rotate(90 42.4337 15.5874)" fill="#2945FF"/>
<circle cx="42.4337" cy="126.433" r="1.73196" transform="rotate(90 42.4337 126.433)" fill="#2945FF"/>
<circle cx="111.712" cy="15.5874" r="1.73196" transform="rotate(90 111.712 15.5874)" fill="#2945FF"/>
<circle cx="111.712" cy="126.433" r="1.73196" transform="rotate(90 111.712 126.433)" fill="#2945FF"/>
<circle cx="56.2889" cy="15.5874" r="1.73196" transform="rotate(90 56.2889 15.5874)" fill="#2945FF"/>
<circle cx="56.2889" cy="126.433" r="1.73196" transform="rotate(90 56.2889 126.433)" fill="#2945FF"/>
<circle cx="84.0003" cy="15.5874" r="1.73196" transform="rotate(90 84.0003 15.5874)" fill="#2945FF"/>
<circle cx="84.0003" cy="126.433" r="1.73196" transform="rotate(90 84.0003 126.433)" fill="#2945FF"/>
<circle cx="28.5775" cy="15.5874" r="1.73196" transform="rotate(90 28.5775 15.5874)" fill="#2945FF"/>
<circle cx="28.5775" cy="126.433" r="1.73196" transform="rotate(90 28.5775 126.433)" fill="#2945FF"/>
<circle cx="125.567" cy="29.4434" r="1.73196" transform="rotate(90 125.567 29.4434)" fill="#2945FF"/>
<circle cx="125.567" cy="140.289" r="1.73196" transform="rotate(90 125.567 140.289)" fill="#2945FF"/>
<circle cx="70.1441" cy="29.4434" r="1.73196" transform="rotate(90 70.1441 29.4434)" fill="#2945FF"/>
<circle cx="70.1441" cy="140.289" r="1.73196" transform="rotate(90 70.1441 140.289)" fill="#2945FF"/>
<circle cx="97.8555" cy="29.4434" r="1.73196" transform="rotate(90 97.8555 29.4434)" fill="#2945FF"/>
<circle cx="97.8555" cy="140.289" r="1.73196" transform="rotate(90 97.8555 140.289)" fill="#2945FF"/>
<circle cx="42.4337" cy="29.4434" r="1.73196" transform="rotate(90 42.4337 29.4434)" fill="#2945FF"/>
<circle cx="42.4337" cy="140.289" r="1.73196" transform="rotate(90 42.4337 140.289)" fill="#2945FF"/>
<circle cx="111.712" cy="29.4434" r="1.73196" transform="rotate(90 111.712 29.4434)" fill="#2945FF"/>
<circle cx="111.712" cy="140.289" r="1.73196" transform="rotate(90 111.712 140.289)" fill="#2945FF"/>
<circle cx="56.2889" cy="29.4434" r="1.73196" transform="rotate(90 56.2889 29.4434)" fill="#2945FF"/>
<circle cx="56.2889" cy="140.289" r="1.73196" transform="rotate(90 56.2889 140.289)" fill="#2945FF"/>
<circle cx="84.0003" cy="29.4434" r="1.73196" transform="rotate(90 84.0003 29.4434)" fill="#2945FF"/>
<circle cx="84.0003" cy="140.289" r="1.73196" transform="rotate(90 84.0003 140.289)" fill="#2945FF"/>
<circle cx="28.5775" cy="29.4434" r="1.73196" transform="rotate(90 28.5775 29.4434)" fill="#2945FF"/>
<circle cx="28.5775" cy="140.289" r="1.73196" transform="rotate(90 28.5775 140.289)" fill="#2945FF"/>
<circle cx="125.567" cy="43.2989" r="1.73196" transform="rotate(90 125.567 43.2989)" fill="#2945FF"/>
<circle cx="125.567" cy="154.145" r="1.73196" transform="rotate(90 125.567 154.145)" fill="#2945FF"/>
<circle cx="70.1441" cy="43.2989" r="1.73196" transform="rotate(90 70.1441 43.2989)" fill="#2945FF"/>
<circle cx="70.1441" cy="154.145" r="1.73196" transform="rotate(90 70.1441 154.145)" fill="#2945FF"/>
<circle cx="97.8555" cy="43.2989" r="1.73196" transform="rotate(90 97.8555 43.2989)" fill="#2945FF"/>
<circle cx="97.8555" cy="154.145" r="1.73196" transform="rotate(90 97.8555 154.145)" fill="#2945FF"/>
<circle cx="42.4337" cy="43.2989" r="1.73196" transform="rotate(90 42.4337 43.2989)" fill="#2945FF"/>
<circle cx="42.4337" cy="154.145" r="1.73196" transform="rotate(90 42.4337 154.145)" fill="#2945FF"/>
<circle cx="111.712" cy="43.2989" r="1.73196" transform="rotate(90 111.712 43.2989)" fill="#2945FF"/>
<circle cx="111.712" cy="154.145" r="1.73196" transform="rotate(90 111.712 154.145)" fill="#2945FF"/>
<circle cx="56.2889" cy="43.2989" r="1.73196" transform="rotate(90 56.2889 43.2989)" fill="#2945FF"/>
<circle cx="56.2889" cy="154.145" r="1.73196" transform="rotate(90 56.2889 154.145)" fill="#2945FF"/>
<circle cx="84.0003" cy="43.2989" r="1.73196" transform="rotate(90 84.0003 43.2989)" fill="#2945FF"/>
<circle cx="84.0003" cy="154.145" r="1.73196" transform="rotate(90 84.0003 154.145)" fill="#2945FF"/>
<circle cx="28.5775" cy="43.2989" r="1.73196" transform="rotate(90 28.5775 43.2989)" fill="#2945FF"/>
<circle cx="28.5775" cy="154.145" r="1.73196" transform="rotate(90 28.5775 154.145)" fill="#2945FF"/>
<circle cx="125.567" cy="57.1548" r="1.73196" transform="rotate(90 125.567 57.1548)" fill="#2945FF"/>
<circle cx="125.567" cy="168.001" r="1.73196" transform="rotate(90 125.567 168.001)" fill="#2945FF"/>
<circle cx="70.1441" cy="57.1548" r="1.73196" transform="rotate(90 70.1441 57.1548)" fill="#2945FF"/>
<circle cx="70.1441" cy="168" r="1.73196" transform="rotate(90 70.1441 168)" fill="#2945FF"/>
<circle cx="97.8555" cy="57.1548" r="1.73196" transform="rotate(90 97.8555 57.1548)" fill="#2945FF"/>
<circle cx="97.8555" cy="168" r="1.73196" transform="rotate(90 97.8555 168)" fill="#2945FF"/>
<circle cx="42.4337" cy="57.1548" r="1.73196" transform="rotate(90 42.4337 57.1548)" fill="#2945FF"/>
<circle cx="42.4337" cy="168" r="1.73196" transform="rotate(90 42.4337 168)" fill="#2945FF"/>
<circle cx="111.712" cy="57.1548" r="1.73196" transform="rotate(90 111.712 57.1548)" fill="#2945FF"/>
<circle cx="111.712" cy="168" r="1.73196" transform="rotate(90 111.712 168)" fill="#2945FF"/>
<circle cx="56.2889" cy="57.1548" r="1.73196" transform="rotate(90 56.2889 57.1548)" fill="#2945FF"/>
<circle cx="56.2889" cy="168" r="1.73196" transform="rotate(90 56.2889 168)" fill="#2945FF"/>
<circle cx="84.0003" cy="57.1548" r="1.73196" transform="rotate(90 84.0003 57.1548)" fill="#2945FF"/>
<circle cx="84.0003" cy="168" r="1.73196" transform="rotate(90 84.0003 168)" fill="#2945FF"/>
<circle cx="28.5775" cy="57.1548" r="1.73196" transform="rotate(90 28.5775 57.1548)" fill="#2945FF"/>
<circle cx="28.5775" cy="168" r="1.73196" transform="rotate(90 28.5775 168)" fill="#2945FF"/>
<circle cx="125.567" cy="71.0103" r="1.73196" transform="rotate(90 125.567 71.0103)" fill="#2945FF"/>
<circle cx="125.567" cy="181.855" r="1.73196" transform="rotate(90 125.567 181.855)" fill="#2945FF"/>
<circle cx="70.1441" cy="71.0103" r="1.73196" transform="rotate(90 70.1441 71.0103)" fill="#2945FF"/>
<circle cx="70.1441" cy="181.855" r="1.73196" transform="rotate(90 70.1441 181.855)" fill="#2945FF"/>
<circle cx="97.8555" cy="71.0103" r="1.73196" transform="rotate(90 97.8555 71.0103)" fill="#2945FF"/>
<circle cx="97.8555" cy="181.855" r="1.73196" transform="rotate(90 97.8555 181.855)" fill="#2945FF"/>
<circle cx="42.4337" cy="71.0103" r="1.73196" transform="rotate(90 42.4337 71.0103)" fill="#2945FF"/>
<circle cx="42.4337" cy="181.855" r="1.73196" transform="rotate(90 42.4337 181.855)" fill="#2945FF"/>
<circle cx="111.712" cy="71.0103" r="1.73196" transform="rotate(90 111.712 71.0103)" fill="#2945FF"/>
<circle cx="111.712" cy="181.855" r="1.73196" transform="rotate(90 111.712 181.855)" fill="#2945FF"/>
<circle cx="56.2889" cy="71.0103" r="1.73196" transform="rotate(90 56.2889 71.0103)" fill="#2945FF"/>
<circle cx="56.2889" cy="181.855" r="1.73196" transform="rotate(90 56.2889 181.855)" fill="#2945FF"/>
<circle cx="84.0003" cy="71.0103" r="1.73196" transform="rotate(90 84.0003 71.0103)" fill="#2945FF"/>
<circle cx="84.0003" cy="181.855" r="1.73196" transform="rotate(90 84.0003 181.855)" fill="#2945FF"/>
<circle cx="28.5775" cy="71.0103" r="1.73196" transform="rotate(90 28.5775 71.0103)" fill="#2945FF"/>
<circle cx="28.5775" cy="181.855" r="1.73196" transform="rotate(90 28.5775 181.855)" fill="#2945FF"/>
<circle cx="125.567" cy="84.8662" r="1.73196" transform="rotate(90 125.567 84.8662)" fill="#2945FF"/>
<circle cx="125.567" cy="195.711" r="1.73196" transform="rotate(90 125.567 195.711)" fill="#2945FF"/>
<circle cx="70.1441" cy="84.8662" r="1.73196" transform="rotate(90 70.1441 84.8662)" fill="#2945FF"/>
<circle cx="70.1441" cy="195.711" r="1.73196" transform="rotate(90 70.1441 195.711)" fill="#2945FF"/>
<circle cx="97.8555" cy="84.8662" r="1.73196" transform="rotate(90 97.8555 84.8662)" fill="#2945FF"/>
<circle cx="97.8555" cy="195.711" r="1.73196" transform="rotate(90 97.8555 195.711)" fill="#2945FF"/>
<circle cx="42.4337" cy="84.8662" r="1.73196" transform="rotate(90 42.4337 84.8662)" fill="#2945FF"/>
<circle cx="42.4337" cy="195.711" r="1.73196" transform="rotate(90 42.4337 195.711)" fill="#2945FF"/>
<circle cx="111.712" cy="84.8662" r="1.73196" transform="rotate(90 111.712 84.8662)" fill="#2945FF"/>
<circle cx="111.712" cy="195.711" r="1.73196" transform="rotate(90 111.712 195.711)" fill="#2945FF"/>
<circle cx="56.2889" cy="84.8662" r="1.73196" transform="rotate(90 56.2889 84.8662)" fill="#2945FF"/>
<circle cx="56.2889" cy="195.711" r="1.73196" transform="rotate(90 56.2889 195.711)" fill="#2945FF"/>
<circle cx="84.0003" cy="84.8662" r="1.73196" transform="rotate(90 84.0003 84.8662)" fill="#2945FF"/>
<circle cx="84.0003" cy="195.711" r="1.73196" transform="rotate(90 84.0003 195.711)" fill="#2945FF"/>
<circle cx="28.5775" cy="84.8662" r="1.73196" transform="rotate(90 28.5775 84.8662)" fill="#2945FF"/>
<circle cx="28.5775" cy="195.711" r="1.73196" transform="rotate(90 28.5775 195.711)" fill="#2945FF"/>
<circle cx="125.567" cy="98.7217" r="1.73196" transform="rotate(90 125.567 98.7217)" fill="#2945FF"/>
<circle cx="125.567" cy="209.567" r="1.73196" transform="rotate(90 125.567 209.567)" fill="#2945FF"/>
<circle cx="70.1441" cy="98.7217" r="1.73196" transform="rotate(90 70.1441 98.7217)" fill="#2945FF"/>
<circle cx="70.1441" cy="209.567" r="1.73196" transform="rotate(90 70.1441 209.567)" fill="#2945FF"/>
<circle cx="97.8555" cy="98.7217" r="1.73196" transform="rotate(90 97.8555 98.7217)" fill="#2945FF"/>
<circle cx="97.8555" cy="209.567" r="1.73196" transform="rotate(90 97.8555 209.567)" fill="#2945FF"/>
<circle cx="42.4337" cy="98.7217" r="1.73196" transform="rotate(90 42.4337 98.7217)" fill="#2945FF"/>
<circle cx="42.4337" cy="209.567" r="1.73196" transform="rotate(90 42.4337 209.567)" fill="#2945FF"/>
<circle cx="111.712" cy="98.7217" r="1.73196" transform="rotate(90 111.712 98.7217)" fill="#2945FF"/>
<circle cx="111.712" cy="209.567" r="1.73196" transform="rotate(90 111.712 209.567)" fill="#2945FF"/>
<circle cx="56.2889" cy="98.7217" r="1.73196" transform="rotate(90 56.2889 98.7217)" fill="#2945FF"/>
<circle cx="56.2889" cy="209.567" r="1.73196" transform="rotate(90 56.2889 209.567)" fill="#2945FF"/>
<circle cx="84.0003" cy="98.7217" r="1.73196" transform="rotate(90 84.0003 98.7217)" fill="#2945FF"/>
<circle cx="84.0003" cy="209.567" r="1.73196" transform="rotate(90 84.0003 209.567)" fill="#2945FF"/>
<circle cx="28.5775" cy="98.7217" r="1.73196" transform="rotate(90 28.5775 98.7217)" fill="#2945FF"/>
<circle cx="28.5775" cy="209.567" r="1.73196" transform="rotate(90 28.5775 209.567)" fill="#2945FF"/>
<circle cx="15.5875" cy="1.73196" r="1.73196" transform="rotate(90 15.5875 1.73196)" fill="#2945FF"/>
<circle cx="15.5875" cy="112.578" r="1.73196" transform="rotate(90 15.5875 112.578)" fill="#2945FF"/>
<circle cx="1.73232" cy="1.73196" r="1.73196" transform="rotate(90 1.73232 1.73196)" fill="#2945FF"/>
<circle cx="1.73234" cy="112.578" r="1.73196" transform="rotate(90 1.73234 112.578)" fill="#2945FF"/>
<circle cx="15.5875" cy="15.5874" r="1.73196" transform="rotate(90 15.5875 15.5874)" fill="#2945FF"/>
<circle cx="15.5875" cy="126.433" r="1.73196" transform="rotate(90 15.5875 126.433)" fill="#2945FF"/>
<circle cx="1.73232" cy="15.5874" r="1.73196" transform="rotate(90 1.73232 15.5874)" fill="#2945FF"/>
<circle cx="1.73234" cy="126.433" r="1.73196" transform="rotate(90 1.73234 126.433)" fill="#2945FF"/>
<circle cx="15.5875" cy="29.4434" r="1.73196" transform="rotate(90 15.5875 29.4434)" fill="#2945FF"/>
<circle cx="15.5875" cy="140.289" r="1.73196" transform="rotate(90 15.5875 140.289)" fill="#2945FF"/>
<circle cx="1.73232" cy="29.4434" r="1.73196" transform="rotate(90 1.73232 29.4434)" fill="#2945FF"/>
<circle cx="1.73234" cy="140.289" r="1.73196" transform="rotate(90 1.73234 140.289)" fill="#2945FF"/>
<circle cx="15.5875" cy="43.2989" r="1.73196" transform="rotate(90 15.5875 43.2989)" fill="#2945FF"/>
<circle cx="15.5875" cy="154.145" r="1.73196" transform="rotate(90 15.5875 154.145)" fill="#2945FF"/>
<circle cx="1.73232" cy="43.2989" r="1.73196" transform="rotate(90 1.73232 43.2989)" fill="#2945FF"/>
<circle cx="1.73234" cy="154.145" r="1.73196" transform="rotate(90 1.73234 154.145)" fill="#2945FF"/>
<circle cx="15.5875" cy="57.1548" r="1.73196" transform="rotate(90 15.5875 57.1548)" fill="#2945FF"/>
<circle cx="15.5875" cy="168" r="1.73196" transform="rotate(90 15.5875 168)" fill="#2945FF"/>
<circle cx="1.73232" cy="57.1548" r="1.73196" transform="rotate(90 1.73232 57.1548)" fill="#2945FF"/>
<circle cx="1.73234" cy="168" r="1.73196" transform="rotate(90 1.73234 168)" fill="#2945FF"/>
<circle cx="15.5875" cy="71.0103" r="1.73196" transform="rotate(90 15.5875 71.0103)" fill="#2945FF"/>
<circle cx="15.5875" cy="181.855" r="1.73196" transform="rotate(90 15.5875 181.855)" fill="#2945FF"/>
<circle cx="1.73232" cy="71.0103" r="1.73196" transform="rotate(90 1.73232 71.0103)" fill="#2945FF"/>
<circle cx="1.73232" cy="181.855" r="1.73196" transform="rotate(90 1.73232 181.855)" fill="#2945FF"/>
<circle cx="15.5875" cy="84.8662" r="1.73196" transform="rotate(90 15.5875 84.8662)" fill="#2945FF"/>
<circle cx="15.5875" cy="195.711" r="1.73196" transform="rotate(90 15.5875 195.711)" fill="#2945FF"/>
<circle cx="1.73232" cy="84.8662" r="1.73196" transform="rotate(90 1.73232 84.8662)" fill="#2945FF"/>
<circle cx="1.73232" cy="195.711" r="1.73196" transform="rotate(90 1.73232 195.711)" fill="#2945FF"/>
<circle cx="15.5875" cy="98.7217" r="1.73196" transform="rotate(90 15.5875 98.7217)" fill="#2945FF"/>
<circle cx="15.5875" cy="209.567" r="1.73196" transform="rotate(90 15.5875 209.567)" fill="#2945FF"/>
<circle cx="1.73232" cy="98.7217" r="1.73196" transform="rotate(90 1.73232 98.7217)" fill="#2945FF"/>
<circle cx="1.73232" cy="209.567" r="1.73196" transform="rotate(90 1.73232 209.567)" fill="#2945FF"/>
</g>
</svg>
