<svg width="24" height="24" viewBox="0 0 24 24" fill="none" xmlns="http://www.w3.org/2000/svg">
<path d="M12 21.6155H4C2.9 21.6155 2 20.7445 2 19.6801V11.9384C2 6.61593 6.5 2.26123 12 2.26123C17.5 2.26123 22 6.61593 22 11.9384C22 17.3575 17.6 21.6155 12 21.6155Z" stroke="#2945FF" stroke-width="2" stroke-miterlimit="10" stroke-linecap="round" stroke-linejoin="round"/>
<path d="M7 12.9059C7.55229 12.9059 8 12.4725 8 11.9378C8 11.4032 7.55229 10.9697 7 10.9697C6.44772 10.9697 6 11.4032 6 11.9378C6 12.4725 6.44772 12.9059 7 12.9059Z" fill="#2945FF"/>
<path d="M17 12.9059C17.5523 12.9059 18 12.4725 18 11.9378C18 11.4032 17.5523 10.9697 17 10.9697C16.4477 10.9697 16 11.4032 16 11.9378C16 12.4725 16.4477 12.9059 17 12.9059Z" fill="#2945FF"/>
<path d="M12 12.9059C12.5523 12.9059 13 12.4725 13 11.9378C13 11.4032 12.5523 10.9697 12 10.9697C11.4477 10.9697 11 11.4032 11 11.9378C11 12.4725 11.4477 12.9059 12 12.9059Z" fill="#2945FF"/>
</svg>
