<svg width="24" height="24" viewBox="0 0 24 24" fill="none" xmlns="http://www.w3.org/2000/svg">
<path d="M21 10.0352L21.4 4.80943C21.5 3.64816 20.4999 2.68042 19.2999 2.77719L13.9 3.16428C12.9 3.26105 12.1 3.64816 11.4 4.32557L3.29995 12.1642C2.49995 12.9384 2.49995 14.0997 3.29995 14.8738L8.99995 20.3899C9.79995 21.1641 11 21.1641 11.8 20.3899L19.9 12.5513C20.5 11.8739 20.9 11.0029 21 10.0352ZM14.5 9.45454C13.7 8.68035 13.7 7.51909 14.5 6.7449C15.3 5.97071 16.5 5.97071 17.3 6.7449C18.1 7.51909 18.1 8.68035 17.3 9.45454C16.5 10.2287 15.3 10.2287 14.5 9.45454Z" stroke="#2945FF" stroke-width="2" stroke-miterlimit="10" stroke-linecap="round" stroke-linejoin="round"/>
</svg>
