<svg width="24" height="24" viewBox="0 0 24 24" fill="none" xmlns="http://www.w3.org/2000/svg">
<path d="M12.9 2.97064L15.3 7.03511C15.6 7.51898 16.1 7.8093 16.6 8.00284L21.3 8.97058C22.1 9.16412 22.4 10.0351 21.8 10.6157L18.6 14.0996C18.2 14.4867 18 15.0673 18.1 15.6479L18.6 20.293C18.7 21.0672 17.9 21.5511 17.2 21.2608L12.8 19.3253C12.3 19.1318 11.7 19.1318 11.2 19.3253L6.80001 21.2608C6.10001 21.5511 5.30001 20.9705 5.40001 20.293L5.90001 15.6479C6.00001 15.0673 5.80001 14.5834 5.40001 14.0996L2.20001 10.6157C1.70001 10.0351 2.00001 9.16412 2.70001 8.97058L7.40001 8.00284C8.00001 7.90607 8.40001 7.51898 8.70001 7.03511L11.1 2.97064C11.5 2.39 12.5 2.39 12.9 2.97064Z" stroke="#2945FF" stroke-width="2" stroke-miterlimit="10" stroke-linecap="round" stroke-linejoin="round"/>
</svg>
